<svg width="39" height="38" viewBox="0 0 39 38" fill="none" xmlns="http://www.w3.org/2000/svg">
<g id="Group 11">
<rect id="Rectangle 69" x="0.991943" width="37.024" height="37.024" rx="10.68" fill="#F6F6F6"/>
<path id="Vector" d="M19.4657 14.4757C17.2546 14.4757 15.4711 16.2592 15.4711 18.4703C15.4711 20.6814 17.2546 22.4649 19.4657 22.4649C21.6768 22.4649 23.4603 20.6814 23.4603 18.4703C23.4603 16.2592 21.6768 14.4757 19.4657 14.4757ZM19.4657 21.0673C18.0368 21.0673 16.8687 19.9026 16.8687 18.4703C16.8687 17.0379 18.0334 15.8733 19.4657 15.8733C20.898 15.8733 22.0627 17.0379 22.0627 18.4703C22.0627 19.9026 20.8946 21.0673 19.4657 21.0673ZM24.5554 14.3123C24.5554 14.8303 24.1382 15.244 23.6237 15.244C23.1057 15.244 22.692 14.8268 22.692 14.3123C22.692 13.7978 23.1091 13.3806 23.6237 13.3806C24.1382 13.3806 24.5554 13.7978 24.5554 14.3123ZM27.2011 15.2579C27.142 14.0099 26.8569 12.9043 25.9425 11.9934C25.0317 11.0826 23.9261 10.7975 22.678 10.7349C21.3917 10.6619 17.5362 10.6619 16.2499 10.7349C15.0053 10.794 13.8997 11.0791 12.9854 11.99C12.0711 12.9008 11.7895 14.0064 11.7269 15.2545C11.6539 16.5408 11.6539 20.3963 11.7269 21.6826C11.786 22.9307 12.0711 24.0363 12.9854 24.9471C13.8997 25.858 15.0018 26.1431 16.2499 26.2056C17.5362 26.2786 21.3917 26.2786 22.678 26.2056C23.9261 26.1465 25.0317 25.8615 25.9425 24.9471C26.8534 24.0363 27.1385 22.9307 27.2011 21.6826C27.2741 20.3963 27.2741 16.5443 27.2011 15.2579ZM25.5393 23.0628C25.2681 23.7442 24.7431 24.2692 24.0582 24.5438C23.0327 24.9506 20.5991 24.8567 19.4657 24.8567C18.3323 24.8567 15.8953 24.9471 14.8732 24.5438C14.1918 24.2727 13.6668 23.7477 13.3921 23.0628C12.9854 22.0372 13.0793 19.6036 13.0793 18.4703C13.0793 17.3369 12.9889 14.8999 13.3921 13.8777C13.6633 13.1963 14.1883 12.6714 14.8732 12.3967C15.8988 11.99 18.3323 12.0838 19.4657 12.0838C20.5991 12.0838 23.0361 11.9934 24.0582 12.3967C24.7396 12.6679 25.2646 13.1929 25.5393 13.8777C25.946 14.9033 25.8521 17.3369 25.8521 18.4703C25.8521 19.6036 25.946 22.0407 25.5393 23.0628Z" fill="#2A2F2F"/>
</g>
</svg>
