<svg width="39" height="38" viewBox="0 0 39 38" fill="none" xmlns="http://www.w3.org/2000/svg">
<g id="Group 12">
<rect id="Rectangle 71" x="0.983887" width="37.024" height="37.024" rx="10.68" fill="#F6F6F6"/>
<path id="Vector" d="M28.3463 14.995C28.3576 15.1531 28.3576 15.3113 28.3576 15.4694C28.3576 20.2921 24.6869 25.8489 17.978 25.8489C15.9111 25.8489 13.9911 25.2503 12.376 24.2113C12.6696 24.2451 12.952 24.2564 13.2569 24.2564C14.9624 24.2564 16.5323 23.6804 17.786 22.6978C16.1822 22.6639 14.8381 21.6135 14.3751 20.1678C14.601 20.2017 14.8268 20.2243 15.0641 20.2243C15.3916 20.2243 15.7191 20.1791 16.0241 20.1001C14.3525 19.7612 13.0988 18.293 13.0988 16.5197V16.4746C13.5844 16.7456 14.1492 16.9151 14.7478 16.9376C13.7651 16.2825 13.1214 15.1644 13.1214 13.8994C13.1214 13.2218 13.3021 12.6006 13.6183 12.0584C15.4141 14.2721 18.1135 15.7178 21.1404 15.876C21.0839 15.6049 21.05 15.3226 21.05 15.0402C21.05 13.0298 22.6764 11.3921 24.6981 11.3921C25.7485 11.3921 26.6972 11.8326 27.3636 12.5441C28.1881 12.386 28.9787 12.081 29.679 11.6632C29.4079 12.5103 28.8319 13.2218 28.0752 13.6735C28.8093 13.5945 29.5209 13.3912 30.1759 13.1089C29.679 13.8317 29.0578 14.4754 28.3463 14.995Z" fill="#2A2F2F"/>
</g>
</svg>
